<svg xmlns="http://www.w3.org/2000/svg" viewBox="0 0 2084 1198" fill="none"><g clip-path="url(#a)"><path d="M239.543 575.348h-75.439V368.805q0-8.546.244-20.996.244-12.696.732-25.879.489-13.428.977-24.17-2.686 3.174-10.987 10.986-8.056 7.569-15.136 13.672l-41.016 32.959-36.377-45.41 114.99-91.553h62.012z" fill="#FF8000"/><path d="M513.551 397.235q0 41.916-6.631 74.834-6.394 32.917-20.84 55.889-14.21 22.971-37.417 35.048t-56.362 12.078q-41.68 0-68.44-21.077-26.76-21.313-39.549-61.098-12.788-40.023-12.788-95.674 0-56.125 11.604-95.911 11.84-40.021 38.365-61.335 26.523-21.314 70.808-21.314 41.442 0 68.203 21.314 26.997 21.077 40.022 61.098 13.025 39.786 13.025 96.148m-169.324 0q0 39.548 4.263 66.072 4.5 26.286 14.919 39.548t28.892 13.262q18.234 0 28.655-13.025 10.656-13.262 15.156-39.549 4.499-26.523 4.499-66.308 0-39.549-4.499-66.072-4.5-26.523-15.156-39.785-10.42-13.499-28.655-13.499-18.472 0-28.892 13.499-10.42 13.262-14.919 39.785-4.263 26.523-4.263 66.072m437.173 0q0 41.916-6.631 74.834-6.395 32.917-20.84 55.889-14.21 22.971-37.417 35.048t-56.362 12.078q-41.68 0-68.44-21.077-26.76-21.313-39.549-61.098-12.788-40.023-12.788-95.674 0-56.125 11.604-95.911 11.841-40.021 38.364-61.335 26.524-21.314 70.809-21.314 41.442 0 68.203 21.314 26.996 21.077 40.022 61.098 13.025 39.786 13.025 96.148m-169.324 0q0 39.548 4.263 66.072 4.499 26.286 14.919 39.548t28.892 13.262q18.234 0 28.654-13.025 10.657-13.262 15.157-39.549 4.499-26.523 4.499-66.308 0-39.549-4.499-66.072-4.5-26.523-15.157-39.785-10.42-13.499-28.654-13.499-18.472 0-28.892 13.499-10.42 13.262-14.919 39.785-4.263 26.523-4.263 66.072m437.174 0q0 41.916-6.63 74.834c-4.27 21.945-11.21 40.574-20.84 55.889-9.47 15.314-21.947 26.997-37.419 35.048q-23.208 12.078-56.363 12.078-41.679 0-68.44-21.077-26.76-21.313-39.548-61.098-12.788-40.023-12.788-95.674 0-56.125 11.604-95.911 11.841-40.021 38.364-61.335 26.524-21.314 70.808-21.314 41.443 0 68.204 21.314 26.998 21.077 40.018 61.098c8.69 26.524 13.03 58.573 13.03 96.148m-169.325 0q0 39.548 4.262 66.072 4.5 26.286 14.92 39.548t28.891 13.262q18.236 0 28.655-13.025 10.658-13.262 15.156-39.549 4.5-26.523 4.5-66.308 0-39.549-4.5-66.072-4.499-26.523-15.156-39.785-10.42-13.499-28.655-13.499-18.471 0-28.891 13.499-10.42 13.262-14.92 39.785-4.262 26.523-4.262 66.072m437.175 0q0 41.916-6.63 74.834c-4.27 21.945-11.21 40.574-20.84 55.889-9.48 15.314-21.95 26.997-37.42 35.048s-34.26 12.078-56.36 12.078c-27.79 0-50.6-7.026-68.44-21.077-17.84-14.209-31.03-34.575-39.55-61.098-8.53-26.682-12.79-58.573-12.79-95.674 0-37.417 3.87-69.387 11.6-95.911q11.85-40.021 38.37-61.335c17.68-14.209 41.28-21.314 70.81-21.314 27.63 0 50.36 7.105 68.2 21.314q27 21.077 40.02 61.098c8.69 26.524 13.03 58.573 13.03 96.148m-169.33 0c0 26.365 1.42 48.389 4.27 66.072 3 17.524 7.97 30.707 14.92 39.548q10.41 13.262 28.89 13.262c12.15 0 21.71-4.342 28.65-13.025 7.11-8.841 12.16-22.024 15.16-39.549q4.5-26.523 4.5-66.308 0-39.549-4.5-66.072c-3-17.682-8.05-30.944-15.16-39.785-6.94-8.999-16.5-13.499-28.65-13.499q-18.48 0-28.89 13.499c-6.95 8.841-11.92 22.103-14.92 39.785-2.85 17.682-4.27 39.706-4.27 66.072" fill="#000"/><path d="M1719.12 236.125h-266.24c-14.71 0-26.63 12.116-26.63 27.062v198.459c0 14.946 11.92 27.062 26.63 27.062h266.24c14.71 0 26.63-12.116 26.63-27.062V263.187c0-14.946-11.92-27.062-26.63-27.062Z" fill="#FF8000" stroke="#000" stroke-width="33.333" stroke-linejoin="round"/><path d="M1497.25 560.876h177.5M1586 488.709v72.167" stroke="#000" stroke-width="33.333" stroke-linecap="round" stroke-linejoin="round"/><path d="m1525 321-41 44.232L1525 403m122-82 41 44.232L1647 403m-37-117-48 152" stroke="#000" stroke-width="21" stroke-linecap="round"/><g clip-path="url(#b)"><path d="m1668.67 158.096-22.02 34.835c-3.22 5.068-2.8 11.653 1.24 19.755s10.99 16.6 20.84 25.497q14.79 13.345 34.59 24.343c13.21 7.332 26.19 12.828 38.95 16.488s23.65 5.063 32.66 4.209q13.53-1.28 17.43-9.388l17.92-37.111-76.78-15.675c-1.97-.396-3.93-1.142-5.91-2.237-1.97-1.096-3.64-2.373-5.02-3.831zm-39.86-70.383c-.97 1.746-.79 3.386.55 4.92l105.25 110.861c.26.245.62.493 1.07.746q.69.38 1.2.519l87.25 17.759c1.83 4.392 2.17 10.119 1.03 17.18q-1.71 10.593-7.41 22.47c-6.3.077-10.98 2.886-14.06 8.426-2.91 5.237-2.96 10.519-.16 15.847l-33.97 45.626c-.74.978-.97 2.095-.67 3.352q.33 1.821 2.04 2.769l21.85 12.135c1.14.632 2.28.721 3.43.265q1.83-.62 2.49-2.34l20.77-52.958c6-.44 10.46-3.279 13.36-8.515 3.08-5.54 2.95-11.122-.38-16.745 7.89-16.173 11.12-30.76 9.7-43.761l44.48 9.209q3.015.48 4.47-2.139c.97-1.745.78-3.385-.55-4.919L1785.3 117.558q-.39-.366-1.08-.746-.675-.379-1.2-.518l-149.74-30.72q-3.015-.479-4.47 2.14" fill="#000"/></g><mask id="c" maskUnits="userSpaceOnUse" x="59" y="678.348" width="277" height="321" fill="#000"><path fill="#fff" d="M59 678.348h277v321H59z"/><path d="M284.594 959.863q-32.228 29.493-82.422 29.492-62.109 0-97.656-39.843-35.547-40.04-35.547-109.766 0-75.39 40.429-116.211 35.157-35.547 89.454-35.547 72.656 0 106.25 47.657 18.554 26.757 19.921 53.71h-60.156q-5.859-20.702-15.039-31.25-16.405-18.75-48.633-18.75-32.812 0-51.757 26.563-18.946 26.367-18.946 74.805 0 48.437 19.922 72.656 20.118 24.024 50.977 24.023 31.64 0 48.242-20.703 9.18-11.133 15.234-33.398h59.571q-7.813 47.07-39.844 76.562"/></mask><path d="M284.594 959.863q-32.228 29.493-82.422 29.492-62.109 0-97.656-39.843-35.547-40.04-35.547-109.766 0-75.39 40.429-116.211 35.157-35.547 89.454-35.547 72.656 0 106.25 47.657 18.554 26.757 19.921 53.71h-60.156q-5.859-20.702-15.039-31.25-16.405-18.75-48.633-18.75-32.812 0-51.757 26.563-18.946 26.367-18.946 74.805 0 48.437 19.922 72.656 20.118 24.024 50.977 24.023 31.64 0 48.242-20.703 9.18-11.133 15.234-33.398h59.571q-7.813 47.07-39.844 76.562" fill="#000"/><path d="m284.594 959.863 6.076 6.64.01-.01.01-.009zm-180.078-10.351-6.73 5.975.007.008.007.008zm4.882-225.977 6.395 6.333.004-.004zm195.704 12.11 7.395-5.129-.019-.029-.02-.028zm19.921 53.71v9h9.469l-.48-9.455zm-60.156 0-8.66 2.451 1.854 6.549h6.806zm-15.039-31.25 6.789-5.908-.008-.009-.008-.009zm-100.39 7.813 7.308 5.252.01-.013.009-.013zm.976 147.461-6.951 5.717.026.031.025.03zm99.219 3.32-6.944-5.725-.039.047-.039.048zm15.234-33.398v-9h-6.879l-1.805 6.638zm59.571 0 8.878 1.473 1.738-10.473h-10.616zm-45.92 69.923c-19.579 17.917-44.773 27.131-76.346 27.131v18c35.354 0 65.107-10.446 88.498-31.852zm-76.346 27.131c-39.302 0-69.235-12.505-90.941-36.835L97.8 955.503c25.69 28.796 60.861 42.852 104.372 42.852zm-90.926-36.818c-21.84-24.599-33.277-58.827-33.277-103.791h-18c0 48.005 12.26 86.954 37.816 115.741zM77.969 839.746c0-48.657 13.012-84.826 37.824-109.878l-12.789-12.666c-29.095 29.376-43.035 70.68-43.035 122.544zm37.828-109.882c21.593-21.833 49.032-32.876 83.055-32.876v-18c-38.374 0-70.57 12.655-95.853 38.218zm83.055-32.876c46.32 0 78.601 15.055 98.894 43.842l14.712-10.371c-24.5-34.755-63.051-51.471-113.606-51.471zm98.854 43.785c11.612 16.746 17.519 33.062 18.329 49.038l17.977-.911c-1.013-19.962-8.387-39.453-21.515-58.384zm27.317 39.582h-60.156v18h60.156zm-51.496 6.55c-4.092-14.458-9.577-26.283-16.91-34.708l-13.578 11.817c4.907 5.637 9.448 14.646 13.168 27.792zm-16.926-34.726c-13.117-14.991-32.139-21.824-55.406-21.824v18c19.702 0 33.102 5.668 41.86 15.677zm-55.406-21.824c-24.764 0-44.754 10.244-59.085 30.337l14.655 10.452c10.929-15.324 25.444-22.789 44.43-22.789zm-59.066 30.311c-14.151 19.694-20.637 46.759-20.637 80.057h18c0-31.286 6.144-54.091 17.254-69.553zm-20.637 80.057c0 33.298 6.812 59.944 21.971 78.373l13.902-11.435c-11.403-13.862-17.873-35.653-17.873-66.938zm22.022 78.434c15.091 18.021 34.593 27.245 57.877 27.245v-18c-17.863 0-32.345-6.791-44.077-20.801zm57.877 27.245c23.239 0 42.152-7.723 55.263-24.072l-14.043-11.261c-9.024 11.254-22.273 17.333-41.22 17.333zm55.186-23.977c7.274-8.822 12.781-21.341 16.975-36.763l-17.369-4.723c-3.88 14.266-8.529 24.013-13.494 30.035zm8.29-30.124h59.571v-18h-59.571zm50.692-10.474c-4.914 29.604-17.325 53.244-37.061 71.415l12.192 13.242c22.972-21.151 37.123-48.553 42.626-81.71z" fill="#000" mask="url(#c)"/><mask id="d" maskUnits="userSpaceOnUse" x="689" y="671" width="1170" height="334" fill="#000"><path fill="#fff" d="M689 671h1170v334H689z"/><path d="M827.286 988H698.611V689.313h128.675q27.761.406 46.201 6.485 31.408 10.335 50.862 37.893 15.603 22.29 21.276 48.227 5.674 25.938 5.674 49.444 0 59.575-23.911 100.913Q894.967 988 827.286 988m46.403-222.495q-14.386-24.317-56.94-24.317H759.2v194.937h57.549q44.174 0 61.601-43.567 9.524-23.911 9.524-56.941 0-45.593-14.185-70.112m347.251 91.997h-145.08v76.799h165.35V988h-226.35V689.313h219.05v52.889h-158.05v63.425h145.08zm210.28 13.374h-64.44V988h-61V689.313h146.51c20.94.406 37.02 2.972 48.23 7.701q17.025 7.092 28.77 20.871a92.3 92.3 0 0 1 15.4 25.127c3.79 9.186 5.68 19.656 5.68 31.409q0 21.276-10.74 41.946-10.74 20.466-35.46 28.977c13.77 5.538 23.5 13.441 29.17 23.708 5.81 10.132 8.72 25.668 8.72 46.607v20.061q0 20.466 1.62 27.761c1.62 7.7 5.4 13.374 11.35 17.021V988h-68.7q-2.835-9.93-4.05-16.008c-1.62-8.376-2.5-16.954-2.63-25.735l-.41-27.761c-.27-19.048-3.78-31.747-10.54-38.096-6.62-6.349-19.11-9.524-37.48-9.524m37.89-54.307c12.43-5.673 18.64-16.886 18.64-33.637q0-27.154-18.03-36.475c-6.76-3.512-16.89-5.269-30.4-5.269h-72.54v80.245h70.72c14.05 0 24.58-1.621 31.61-4.864m258.09 128.269c14.73 0 26.68-1.621 35.87-4.863 17.43-6.214 26.14-17.764 26.14-34.651 0-9.861-4.32-17.494-12.97-22.898-8.64-5.268-22.22-9.929-40.73-13.982l-31.61-7.092q-46.605-10.537-64.44-22.898c-20.13-13.779-30.19-35.326-30.19-64.641 0-26.748 9.73-48.971 29.18-66.667q29.175-26.546 85.71-26.546c31.48 0 58.3 8.376 80.45 25.127 22.29 16.616 33.98 40.798 35.06 72.544h-59.98c-1.08-17.967-8.92-30.733-23.51-38.298q-14.595-7.498-36.27-7.498c-16.08 0-28.91 3.242-38.5 9.727-9.59 6.484-14.39 15.535-14.39 27.153 0 10.672 4.73 18.643 14.18 23.911q9.12 5.269 38.91 12.361l51.47 12.361c22.56 5.403 39.58 12.631 51.07 21.682 17.83 14.049 26.74 34.381 26.74 60.994q0 40.932-31.41 68.086c-20.8 17.967-50.25 26.95-88.34 26.95q-58.365 0-91.8-26.545c-22.29-17.832-33.43-42.284-33.43-73.355h59.57c1.89 13.644 5.61 23.844 11.15 30.598 10.13 12.294 27.49 18.44 52.07 18.44"/></mask><path d="M827.286 988H698.611V689.313h128.675q27.761.406 46.201 6.485 31.408 10.335 50.862 37.893 15.603 22.29 21.276 48.227 5.674 25.938 5.674 49.444 0 59.575-23.911 100.913Q894.967 988 827.286 988m46.403-222.495q-14.386-24.317-56.94-24.317H759.2v194.937h57.549q44.174 0 61.601-43.567 9.524-23.911 9.524-56.941 0-45.593-14.185-70.112m347.251 91.997h-145.08v76.799h165.35V988h-226.35V689.313h219.05v52.889h-158.05v63.425h145.08zm210.28 13.374h-64.44V988h-61V689.313h146.51c20.94.406 37.02 2.972 48.23 7.701q17.025 7.092 28.77 20.871a92.3 92.3 0 0 1 15.4 25.127c3.79 9.186 5.68 19.656 5.68 31.409q0 21.276-10.74 41.946-10.74 20.466-35.46 28.977c13.77 5.538 23.5 13.441 29.17 23.708 5.81 10.132 8.72 25.668 8.72 46.607v20.061q0 20.466 1.62 27.761c1.62 7.7 5.4 13.374 11.35 17.021V988h-68.7q-2.835-9.93-4.05-16.008c-1.62-8.376-2.5-16.954-2.63-25.735l-.41-27.761c-.27-19.048-3.78-31.747-10.54-38.096-6.62-6.349-19.11-9.524-37.48-9.524m37.89-54.307c12.43-5.673 18.64-16.886 18.64-33.637q0-27.154-18.03-36.475c-6.76-3.512-16.89-5.269-30.4-5.269h-72.54v80.245h70.72c14.05 0 24.58-1.621 31.61-4.864m258.09 128.269c14.73 0 26.68-1.621 35.87-4.863 17.43-6.214 26.14-17.764 26.14-34.651 0-9.861-4.32-17.494-12.97-22.898-8.64-5.268-22.22-9.929-40.73-13.982l-31.61-7.092q-46.605-10.537-64.44-22.898c-20.13-13.779-30.19-35.326-30.19-64.641 0-26.748 9.73-48.971 29.18-66.667q29.175-26.546 85.71-26.546c31.48 0 58.3 8.376 80.45 25.127 22.29 16.616 33.98 40.798 35.06 72.544h-59.98c-1.08-17.967-8.92-30.733-23.51-38.298q-14.595-7.498-36.27-7.498c-16.08 0-28.91 3.242-38.5 9.727-9.59 6.484-14.39 15.535-14.39 27.153 0 10.672 4.73 18.643 14.18 23.911q9.12 5.269 38.91 12.361l51.47 12.361c22.56 5.403 39.58 12.631 51.07 21.682 17.83 14.049 26.74 34.381 26.74 60.994q0 40.932-31.41 68.086c-20.8 17.967-50.25 26.95-88.34 26.95q-58.365 0-91.8-26.545c-22.29-17.832-33.43-42.284-33.43-73.355h59.57c1.89 13.644 5.61 23.844 11.15 30.598 10.13 12.294 27.49 18.44 52.07 18.44" fill="#000"/><path d="M698.611 988h-9v9h9zm0-298.687v-9h-9v9zm128.675 0 .131-8.999-.066-.001h-.065zm46.201 6.485-2.818 8.547.005.002zm50.862 37.893 7.373-5.161-.01-.015-.011-.014zm3.039 198.584 7.779 4.526.006-.01.006-.01zm-53.699-166.77 7.791-4.507-.022-.038-.023-.038zM759.2 741.188v-9h-9v9zm0 194.937h-9v9h9zm119.15-43.567 8.356 3.343.005-.013zM827.286 979H698.611v18h128.675zm-119.675 9V689.313h-18V988zm-9-289.687h128.675v-18H698.611zm128.543 0c17.952.262 32.374 2.359 43.515 6.032l5.636-17.095c-13.446-4.432-29.825-6.657-48.888-6.936zm43.52 6.034c19.065 6.273 34.443 17.705 46.322 34.534l14.705-10.38c-14.058-19.916-32.588-33.746-55.401-41.252zm46.302 34.505c9.736 13.91 16.335 28.89 19.857 44.99l17.585-3.847c-4.044-18.483-11.629-35.655-22.696-51.465zm19.857 44.99c3.662 16.74 5.466 32.573 5.466 47.52h18c0-16.394-1.978-33.523-5.881-51.367zm5.466 47.52c0 38.522-7.727 70.518-22.701 96.407l15.581 9.012c16.906-29.228 25.12-64.507 25.12-105.419zm-22.69 96.387C899.702 961.964 869.397 979 827.286 979v18c48.129 0 84.559-20.114 107.881-60.199zm-38.174-166.827c-11.935-20.172-34.876-28.734-64.686-28.734v18c26.927 0 41.947 7.65 49.195 19.9zm-64.686-28.734H759.2v18h57.549zm-66.549 9v194.937h18V741.188zm9 203.937h57.549v-18H759.2zm57.549 0c16.258 0 30.65-4.033 42.684-12.544 11.995-8.483 20.977-20.939 27.273-36.68l-16.712-6.685c-5.322 13.303-12.415 22.63-20.954 28.669-8.501 6.012-19.1 9.24-32.291 9.24zm69.962-49.237c6.872-17.253 10.163-37.419 10.163-60.271h-18c0 21.188-3.059 38.983-8.885 53.611zm10.163-60.271c0-31.11-4.802-56.309-15.394-74.619l-15.581 9.014c8.32 14.381 12.975 35.924 12.975 65.605zm324.066 21.885v9h9v-9zm-145.08 0v-9h-9v9zm0 76.799h-9v9h9zm165.35 0h9v-9h-9zm0 53.699v9h9v-9zm-226.35 0h-9v9h9zm0-298.687v-9h-9v9zm219.05 0h9v-9h-9zm0 52.889v9h9v-9zm-158.05 0v-9h-9v9zm0 63.425h-9v9h9zm145.08 0h9v-9h-9zm0 42.875h-145.08v18h145.08zm-154.08 9v76.799h18v-76.799zm9 85.799h165.35v-18h-165.35zm156.35-9V988h18v-53.699zm9 44.699h-226.35v18h226.35zm-217.35 9V689.313h-18V988zm-9-289.687h219.05v-18h-219.05zm210.05-9v52.889h18v-52.889zm9 43.889h-158.05v18h158.05zm-167.05 9v63.425h18v-63.425zm9 72.425h145.08v-18h-145.08zm136.08-9v51.875h18v-51.875zm154.84 65.249v-9h-9v9zm0 117.124v9h9v-9zm-61 0h-9v9h9zm0-298.687v-9h-9v9zm146.51 0 .17-8.998-.08-.002h-.09zm48.23 7.701-3.5 8.293.02.007.02.007zm28.77 20.871-6.85 5.841.01.008.01.008zm10.34 98.482 7.97 4.182v-.016l.01-.017zm-35.46 28.977-2.93-8.51-22.83 7.857 22.4 9.003zm29.17 23.708-7.87 4.353.03.062.04.062zm10.34 94.429 8.81-1.854-.01-.049-.01-.049zm11.35 17.021h9v-5.036l-4.3-2.634zm0 7.498v9h9v-9zm-68.7 0-8.65 2.473 1.86 6.527h6.79zm-4.05-16.008-8.84 1.71.01.027.01.028zm-2.63-25.735-9 .131v.007zm-.41-27.761-9 .127v.004zM1468.7 880.4l-6.23 6.495.04.031.03.032zm.41-63.831-3.74-8.187-.02.008-.01.008zm.61-70.112-4.16 7.985.01.005.01.005zm-102.94-5.269v-9h-9v9zm0 80.245h-9v9h9zm64.44 40.443h-64.44v18h64.44zm-73.44 9V988h18V870.876zm9 108.124h-61v18h61zm-52 9V689.313h-18V988zm-9-289.687h146.51v-18h-146.51zm146.34-.001c20.5.397 35.24 2.92 44.9 6.995l6.99-16.586c-12.76-5.382-30.17-7.992-51.55-8.406zm44.94 7.009c10.06 4.194 18.49 10.316 25.38 18.405l13.7-11.681c-8.77-10.284-19.53-18.077-32.16-23.339zm25.4 18.421a83.6 83.6 0 0 1 13.91 22.697l16.64-6.854c-4.14-10.072-9.78-19.268-16.88-27.557zm13.91 22.697c3.26 7.919 5 17.193 5 27.982h18c0-12.717-2.05-24.383-6.36-34.836zm5 27.982c0 12.607-3.17 25.175-9.73 37.796l15.97 8.299c7.76-14.937 11.76-30.333 11.76-46.095zm-9.71 37.764c-5.95 11.341-15.81 19.616-30.42 24.649l5.85 17.02c18.35-6.316 32.14-17.358 40.51-33.305zm-30.85 41.509c12.38 4.976 20.23 11.695 24.66 19.711l15.75-8.706c-6.92-12.518-18.52-21.604-33.7-27.706zm24.73 19.835c4.63 8.072 7.52 21.692 7.52 42.13h18c0-21.441-2.92-38.892-9.91-51.083zm7.52 42.13v20.061h18v-20.061zm0 20.061c0 13.542.51 23.748 1.83 29.713l17.58-3.904c-.84-3.761-1.41-12.063-1.41-25.809zm1.81 29.615c2.06 9.778 7.12 17.726 15.45 22.838l9.41-15.341c-3.55-2.183-6.06-5.583-7.24-11.205zm11.16 15.167V988h18v-7.498zm9-1.502h-68.7v18h68.7zm-60.04 6.527c-1.87-6.517-3.14-11.59-3.88-15.3l-17.65 3.53c.87 4.395 2.3 9.994 4.22 16.716zm-3.87-15.246c-1.52-7.842-2.35-15.894-2.47-24.163l-18 .277q.21 13.942 2.79 27.307zm-2.47-24.156-.41-27.761-18 .263.41 27.761zm-.41-27.757c-.14-9.983-1.13-18.744-3.16-26.081-2.02-7.304-5.23-13.761-10.21-18.445l-12.33 13.116c1.77 1.665 3.7 4.732 5.19 10.127 1.48 5.361 2.38 12.473 2.51 21.538zm-13.31-44.463c-9.33-8.95-25.03-12.029-43.71-12.029v18c18.05 0 27.35 3.271 31.25 7.019zm-2.08-49.148c7.84-3.581 14.01-9.085 18.11-16.49 4.04-7.289 5.79-15.888 5.79-25.335h-18c0 7.303-1.36 12.686-3.53 16.61-2.11 3.808-5.26 6.747-9.85 8.84zm23.9-41.825c0-20.149-6.87-36.187-22.9-44.47l-8.27 15.99c8.02 4.145 13.17 12.424 13.17 28.48zm-22.88-44.46c-8.68-4.513-20.55-6.284-34.55-6.284v18c13.02 0 21.41 1.742 26.24 4.254zm-34.55-6.284h-72.54v18h72.54zm-81.54 9v80.245h18v-80.245zm9 89.245h70.72v-18h-70.72zm70.72 0c14.46 0 26.57-1.624 35.38-5.692l-7.54-16.343c-5.24 2.416-14.2 4.035-27.84 4.035zm325.57 109.542 3 8.487.01-.005.01-.005zm13.17-57.549 4.77-7.632-.04-.027-.05-.026zm-40.73-13.982-1.97 8.782.02.005.03.005zm-31.61-7.092-1.98 8.778v.002l.01.002zm-64.44-22.898 5.13-7.397-.02-.015-.02-.014zm165.15-132.727-5.43 7.179.03.018.02.019zm35.06 72.544v9h9.31l-.32-9.306zm-59.98 0-8.99.54.51 8.46h8.48zm-23.51-38.298 4.14-7.99-.01-.008-.02-.007zm-74.77 2.229-5.04-7.456zm-.21 51.064 4.51-7.793-.06-.035-.06-.034zm38.91 12.361 2.1-8.751-.01-.002v-.002zm51.47 12.361-2.1 8.751v.001zm51.07 21.682-5.58 7.068.01.001zm-4.67 129.08 5.89 6.811v-.003zm-180.14.405-5.62 7.028.01.01.01.01zm-33.43-73.355v-9h-9v9zm59.57 0 8.92-1.235-1.08-7.765h-7.84zm11.15 30.598-6.96 5.707v.009l.01.008zm52.07 27.44c15.28 0 28.36-1.667 38.87-5.376l-6-16.974c-7.86 2.776-18.69 4.35-32.87 4.35zm38.89-5.386c9.91-3.534 18.1-8.858 23.77-16.38 5.72-7.588 8.35-16.688 8.35-26.748h-18c0 6.827-1.73 11.945-4.72 15.908-3.04 4.027-7.93 7.586-15.44 10.266zm32.12-43.128c0-13.09-6.03-23.549-17.2-30.53l-9.54 15.264c6.12 3.827 8.74 8.633 8.74 15.266zm-17.29-30.583c-9.94-6.06-24.7-10.974-43.48-15.088l-3.85 17.583c18.22 3.991 30.62 8.399 37.97 12.876zm-43.44-15.078-31.61-7.093-3.94 17.564 31.61 7.092zm-31.6-7.089c-30.97-7.003-50.95-14.346-61.29-21.517l-10.26 14.794c13.44 9.31 36.42 17.233 67.59 24.279zm-61.33-21.546c-17.17-11.749-26.28-30.186-26.28-57.215h-18c0 31.6 11.01 56.258 34.11 72.068zm-26.28-57.215c0-24.263 8.69-44.052 26.23-60.01l-12.11-13.315c-21.36 19.436-32.12 44.092-32.12 73.325zm26.23-60.01c17.21-15.648 43.25-24.203 79.66-24.203v-18c-38.96 0-70.06 9.142-91.77 28.888zm79.66-24.203c29.79 0 54.64 7.891 75.02 23.306l10.86-14.358c-23.92-18.088-52.71-26.948-85.88-26.948zm75.07 23.343c19.77 14.736 30.44 36.181 31.44 65.634l17.99-.612c-1.16-34.04-13.86-60.957-38.67-79.454zm40.44 56.328h-59.98v18h59.98zm-51 8.46c-1.25-20.766-10.64-36.565-28.35-45.748l-8.28 15.979c11.47 5.947 17.75 15.681 18.66 30.849zm-28.38-45.763c-11.34-5.829-24.94-8.493-40.38-8.493v18c13.46 0 24.05 2.334 32.16 6.503zm-40.38-8.493c-17.2 0-31.99 3.459-43.54 11.271l10.08 14.912c7.63-5.157 18.5-8.183 33.46-8.183zm-43.54 11.271c-12.08 8.165-18.35 20.015-18.35 34.609h18c0-8.642 3.32-14.894 10.43-19.697zm-18.35 34.609c0 6.703 1.5 12.999 4.81 18.574 3.3 5.568 8.11 9.922 13.99 13.199l8.77-15.724c-3.58-1.992-5.86-4.256-7.28-6.659-1.42-2.396-2.29-5.421-2.29-9.39zm18.68 31.704c7.4 4.275 21.66 8.642 41.33 13.323l4.17-17.51c-20.06-4.775-31.73-8.649-36.49-11.399zm41.31 13.319 51.47 12.361 4.2-17.502-51.47-12.361zm51.47 12.362c21.96 5.259 37.56 12.089 47.59 19.998l11.15-14.136c-12.93-10.193-31.38-17.818-54.54-23.367zm47.6 19.999c15.27 12.038 23.31 29.536 23.31 53.925h18c0-28.838-9.79-52.003-30.17-68.064zm23.31 53.925c0 24.631-9.3 44.856-28.29 61.277l11.77 13.617c22.88-19.784 34.52-44.949 34.52-74.894zm-28.29 61.274c-18.63 16.093-45.7 24.762-82.46 24.762v18c39.42 0 71.25-9.298 94.23-29.139zm-82.46 24.762c-37.62 0-66-8.554-86.2-24.594l-11.2 14.097c24.38 19.355 57.2 28.497 97.4 28.497zm-86.18-24.573c-19.95-15.958-30.05-37.713-30.05-66.327h-18c0 33.529 12.18 60.677 36.81 80.383zm-39.05-57.327h59.57v-18h-59.57zm50.66-7.764c2 14.422 6.06 26.494 13.1 35.069l13.92-11.413c-4.05-4.934-7.41-13.261-9.19-26.127zm13.11 35.086c12.6 15.285 33.22 21.716 59.02 21.716v-18c-23.37 0-37.46-5.862-45.13-15.164z" fill="#000" mask="url(#d)"/><mask id="e" maskUnits="userSpaceOnUse" x="370" y="677.348" width="122" height="324" fill="#000"><path fill="#fff" d="M370 677.348h122v324H370z"/><path d="M430.146 977.081q-17.138-13.013-17.138-37.769v-49.67q0-19.995-12.061-30.627-7.3-6.507-20.947-10.315v-19.202q15.393-5.237 21.741-11.584 11.267-10.95 11.267-33.484V741.9q0-8.093 2.698-16.98 4.76-15.393 16.186-24.438 10.474-8.251 24.597-10.95 8.57-1.745 24.597-1.904v25.232q-13.17 2.856-17.932 7.617-7.3 7.3-7.3 25.549v36.817q0 17.773-4.76 28.247-8.094 17.614-31.739 28.564 21.424 8.728 28.724 20.313 7.458 11.584 7.775 32.055v40.149q0 17.616 8.57 25.391 4.761 4.602 16.662 8.093v25.232l-11.267-.317q-22.692-.635-39.673-13.489"/></mask><path d="M430.146 977.081q-17.138-13.013-17.138-37.769v-49.67q0-19.995-12.061-30.627-7.3-6.507-20.947-10.315v-19.202q15.393-5.237 21.741-11.584 11.267-10.95 11.267-33.484V741.9q0-8.093 2.698-16.98 4.76-15.393 16.186-24.438 10.474-8.251 24.597-10.95 8.57-1.745 24.597-1.904v25.232q-13.17 2.856-17.932 7.617-7.3 7.3-7.3 25.549v36.817q0 17.773-4.76 28.247-8.094 17.614-31.739 28.564 21.424 8.728 28.724 20.313 7.458 11.584 7.775 32.055v40.149q0 17.616 8.57 25.391 4.761 4.602 16.662 8.093v25.232l-11.267-.317q-22.692-.635-39.673-13.489" fill="#FF8000"/><path d="m430.146 977.081-6.047 7.965.006.004.006.004zm-29.199-118.066-6.653 7.465.02.018.02.018zM380 848.7h-10v7.591l7.312 2.041zm0-19.202-3.221-9.467-6.779 2.306v7.161zm21.741-11.584-6.97-7.172-.051.05-.05.05zm13.965-92.994-9.554-2.954-.008.025-.007.025zm16.186-24.438-6.189-7.855-.009.007-.009.007zm24.597-10.95 1.876 9.823.06-.012.06-.012zm24.597-1.904h10v-10.1l-10.099.1zm0 25.232 2.12 9.773 7.88-1.709v-8.064zm-29.992 98.23 9.087 4.175.008-.019.008-.018zm-31.739 28.564-4.202-9.074-20.862 9.661 21.292 8.674zm28.724 20.313-8.461 5.331.026.041.027.041zm7.775 32.055h10v-.077l-.001-.078zm8.57 65.54 6.95-7.19-.113-.11-.117-.106zm16.662 8.093h10v-7.488l-7.185-2.107zm0 25.232-.281 9.993 10.281.29v-10.283zm-11.267-.317.282-9.996h-.002zm-33.625-21.453c-8.539-6.483-13.186-15.893-13.186-29.805h-20c0 19.097 6.778 34.866 21.091 45.734zm-13.186-29.805v-49.67h-20v49.67zm0-49.67c0-15.445-4.746-28.694-15.448-38.129l-13.226 15.003c5.379 4.742 8.674 11.911 8.674 23.126zm-15.407-38.092c-6.4-5.705-14.956-9.704-24.913-12.482l-5.376 19.264c8.24 2.299 13.649 5.177 16.982 8.148zM390 848.7v-19.202h-20V848.7zm-6.779-9.735c10.718-3.646 19.721-8.11 25.591-13.98l-14.142-14.143c-2.594 2.594-8.085 5.853-17.891 9.189zm25.489-13.88c10.16-9.874 14.298-24.116 14.298-40.655h-20c0 13.506-3.374 21.586-8.237 26.312zm14.298-40.655V741.9h-20v42.53zm0-42.53c0-4.278.712-8.956 2.266-14.075l-19.137-5.809c-2.043 6.73-3.129 13.372-3.129 19.884zm2.251-14.025c2.643-8.545 6.972-14.907 12.84-19.553l-12.414-15.681c-9.366 7.415-15.828 17.346-19.533 29.325zm12.822-19.538c5.626-4.433 12.317-7.46 20.284-8.982l-3.752-19.645c-10.864 2.075-20.571 6.347-28.91 12.917zm20.404-9.006c4.773-.972 12.22-1.6 22.7-1.704l-.198-19.999c-10.89.108-19.841.75-26.494 2.105zm12.601-11.703v25.232h20v-25.232zm7.881 15.459c-9.11 1.976-17.553 4.988-22.884 10.319l14.142 14.142c1.017-1.017 4.529-3.082 12.981-4.915zm-22.884 10.319c-7.746 7.746-10.229 19.677-10.229 32.62h20c0-11.389 2.384-16.491 4.371-18.478zm-10.229 32.62v36.817h20v-36.817zm0 36.817c0 11.121-1.514 18.94-3.864 24.109l18.207 8.276c3.998-8.796 5.657-19.808 5.657-32.385zm-3.847 24.072c-4.105 8.934-12.501 17.019-26.854 23.665l8.405 18.149c17.174-7.954 29.936-18.912 36.623-33.464zm-26.424 42c13.548 5.52 20.817 11.275 24.035 16.383l16.921-10.662c-6.515-10.339-18.394-18.125-33.411-24.243zm24.088 16.465c3.583 5.567 5.989 14.168 6.185 26.797l19.997-.31c-.227-14.665-3.006-27.434-9.366-37.314zm6.183 26.642v40.149h20v-40.149zm0 40.149c0 13.095 3.164 24.915 11.85 32.797l13.44-14.812c-2.74-2.486-5.29-7.593-5.29-17.985zm11.62 32.581c4.962 4.797 12.443 8.048 20.798 10.499l5.629-19.191c-7.515-2.205-11.142-4.349-12.527-5.688zm13.612.903v25.232h20v-25.232zm10.282 15.236-11.267-.317-.563 19.996 11.267.31zm-11.269-.317c-13.191-.369-24.37-4.239-33.917-11.466l-12.071 15.946c13.093 9.912 28.363 15.036 45.429 15.516z" fill="#FF8000" mask="url(#e)"/><mask id="f" maskUnits="userSpaceOnUse" x="528" y="677.348" width="122" height="324" fill="#000"><path fill="#fff" d="M528 677.348h122v324H528z"/><path d="M589.854 977.081q17.138-13.013 17.138-37.769v-49.67q0-19.995 12.061-30.627 7.3-6.507 20.947-10.315v-19.202q-15.393-5.237-21.741-11.584-11.267-10.95-11.267-33.484V741.9q0-8.093-2.698-16.98-4.76-15.393-16.186-24.438-10.475-8.251-24.597-10.95-8.57-1.745-24.597-1.904v25.232q13.17 2.856 17.932 7.617 7.3 7.3 7.3 25.549v36.817q0 17.773 4.76 28.247 8.093 17.614 31.739 28.564-21.424 8.728-28.724 20.313-7.458 11.584-7.775 32.055v40.149q0 17.616-8.57 25.391-4.761 4.602-16.662 8.093v25.232l11.267-.317q22.692-.635 39.673-13.489"/></mask><path d="M589.854 977.081q17.138-13.013 17.138-37.769v-49.67q0-19.995 12.061-30.627 7.3-6.507 20.947-10.315v-19.202q-15.393-5.237-21.741-11.584-11.267-10.95-11.267-33.484V741.9q0-8.093-2.698-16.98-4.76-15.393-16.186-24.438-10.475-8.251-24.597-10.95-8.57-1.745-24.597-1.904v25.232q13.17 2.856 17.932 7.617 7.3 7.3 7.3 25.549v36.817q0 17.773 4.76 28.247 8.093 17.614 31.739 28.564-21.424 8.728-28.724 20.313-7.458 11.584-7.775 32.055v40.149q0 17.616-8.57 25.391-4.761 4.602-16.662 8.093v25.232l11.267-.317q22.692-.635 39.673-13.489" fill="#FF8000"/><path d="m589.854 977.081 6.047 7.965-.006.004-.006.004zm29.199-118.066 6.653 7.465-.02.018-.02.018zM640 848.7h10v7.591l-7.312 2.041zm0-19.202 3.221-9.467 6.779 2.306v7.161zm-21.741-11.584 6.97-7.172.051.05.05.05zm-13.965-92.994 9.554-2.954.008.025.007.025zm-16.186-24.438 6.189-7.855.009.007.009.007zm-24.597-10.95-1.876 9.823-.06-.012-.06-.012zm-24.597-1.904h-10v-10.1l10.099.1zm0 25.232-2.12 9.773-7.88-1.709v-8.064zm29.992 98.23-9.087 4.175-.008-.019-.008-.018zm31.739 28.564 4.202-9.074 20.862 9.661-21.292 8.674zm-28.724 20.313 8.461 5.331-.026.041-.027.041zm-7.775 32.055h-10v-.077l.001-.078zm-8.57 65.54-6.95-7.19.113-.11.117-.106zm-16.662 8.093h-10v-7.488l7.185-2.107zm0 25.232.281 9.993-10.281.29v-10.283zm11.267-.317-.282-9.996h.002zm33.625-21.453c8.539-6.483 13.186-15.893 13.186-29.805h20c0 19.097-6.778 34.866-21.091 45.734zm13.186-29.805v-49.67h20v49.67zm0-49.67c0-15.445 4.746-28.694 15.448-38.129l13.226 15.003c-5.379 4.742-8.674 11.911-8.674 23.126zm15.407-38.092c6.4-5.705 14.956-9.704 24.913-12.482l5.376 19.264c-8.24 2.299-13.649 5.177-16.982 8.148zM630 848.7v-19.202h20V848.7zm6.779-9.735c-10.718-3.646-19.721-8.11-25.591-13.98l14.142-14.143c2.594 2.594 8.085 5.853 17.891 9.189zm-25.489-13.88c-10.16-9.874-14.298-24.116-14.298-40.655h20c0 13.506 3.374 21.586 8.237 26.312zm-14.298-40.655V741.9h20v42.53zm0-42.53c0-4.278-.712-8.956-2.266-14.075l19.137-5.809c2.043 6.73 3.129 13.372 3.129 19.884zm-2.251-14.025c-2.643-8.545-6.972-14.907-12.84-19.553l12.414-15.681c9.366 7.415 15.828 17.346 19.533 29.325zm-12.822-19.538c-5.626-4.433-12.317-7.46-20.284-8.982l3.752-19.645c10.864 2.075 20.571 6.347 28.91 12.917zm-20.404-9.006c-4.773-.972-12.22-1.6-22.7-1.704l.198-19.999c10.89.108 19.841.75 26.494 2.105zm-12.601-11.703v25.232h-20v-25.232zm-7.881 15.459c9.11 1.976 17.553 4.988 22.884 10.319l-14.142 14.142c-1.017-1.017-4.529-3.082-12.981-4.915zm22.884 10.319c7.746 7.746 10.229 19.677 10.229 32.62h-20c0-11.389-2.384-16.491-4.371-18.478zm10.229 32.62v36.817h-20v-36.817zm0 36.817c0 11.121 1.514 18.94 3.864 24.109l-18.207 8.276c-3.998-8.796-5.657-19.808-5.657-32.385zm3.847 24.072c4.105 8.934 12.501 17.019 26.854 23.665l-8.405 18.149c-17.174-7.954-29.936-18.912-36.623-33.464zm26.424 42c-13.548 5.52-20.817 11.275-24.035 16.383l-16.921-10.662c6.515-10.339 18.394-18.125 33.411-24.243zm-24.088 16.465c-3.583 5.567-5.989 14.168-6.185 26.797l-19.997-.31c.227-14.665 3.006-27.434 9.366-37.314zm-6.183 26.642v40.149h-20v-40.149zm0 40.149c0 13.095-3.164 24.915-11.85 32.797l-13.44-14.812c2.74-2.486 5.29-7.593 5.29-17.985zm-11.62 32.581c-4.962 4.797-12.443 8.048-20.798 10.499l-5.629-19.191c7.515-2.205 11.142-4.349 12.527-5.688zm-13.612.903v25.232h-20v-25.232zm-10.282 15.236 11.267-.317.563 19.996-11.267.31zm11.269-.317c13.191-.369 24.37-4.239 33.917-11.466l12.071 15.946c-13.093 9.912-28.363 15.036-45.429 15.516z" fill="#FF8000" mask="url(#f)"/><path d="M107.534 1113.36c6.289 0 11.253-1.25 14.892-3.77 3.683-2.52 5.525-7.05 5.525-13.61 0-7.05-2.56-11.86-7.681-14.42-2.741-1.35-6.402-2.02-10.984-2.02H76.538v33.82zm-44.405-45.35h45.82c7.547 0 13.769 1.11 18.665 3.31 9.299 4.22 13.948 12.01 13.948 23.38q0 8.895-3.706 14.55c-2.425 3.78-5.839 6.81-10.242 9.1 3.864 1.57 6.761 3.64 8.693 6.2 1.976 2.56 3.077 6.71 3.301 12.46l.472 13.28c.135 3.77.449 6.58.943 8.42.809 3.15 2.247 5.17 4.313 6.07v2.22h-16.441q-.674-1.275-1.079-3.3c-.269-1.35-.494-3.95-.673-7.82l-.809-16.51c-.314-6.47-2.718-10.8-7.21-13-2.561-1.21-6.581-1.82-12.062-1.82H76.538V1167h-13.41zm96.492 27.16h12.331V1167h-12.331zm0-27.16h12.331v13.75h-12.331zm56.197 25.54c5.661 0 10.602 1.4 14.825 4.18q3.437 2.355 7.007 6.87v-9.09h11.186v65.63q0 13.74-4.043 21.69c-5.031 9.8-14.532 14.69-28.503 14.69q-11.657 0-19.608-5.25c-5.301-3.46-8.266-8.9-8.895-16.31h12.331c.584 3.24 1.752 5.73 3.504 7.48 2.74 2.7 7.053 4.04 12.938 4.04 9.298 0 15.385-3.27 18.26-9.83 1.707-3.87 2.493-10.76 2.359-20.69q-3.639 5.52-8.76 8.22t-13.544 2.7c-7.816 0-14.667-2.77-20.552-8.29-5.84-5.57-8.76-14.76-8.76-27.56 0-12.09 2.943-21.52 8.828-28.3 5.929-6.79 13.072-10.18 21.427-10.18m21.832 37.06c0-8.94-1.841-15.56-5.525-19.87-3.684-4.32-8.378-6.47-14.083-6.47-8.535 0-14.375 3.99-17.52 11.99-1.662 4.27-2.493 9.86-2.493 16.78q0 12.195 4.919 18.6 4.987 6.33 13.342 6.33 13.073 0 18.396-11.79 2.964-6.675 2.964-15.57m29.514-62.93h12.129v36.92q4.313-5.46 7.749-7.68 5.862-3.84 14.622-3.84 15.7 0 21.293 10.98 3.032 6 3.032 16.65V1167h-12.466v-45.48c0-5.3-.673-9.19-2.021-11.66-2.201-3.95-6.334-5.93-12.398-5.93q-7.547 0-13.679 5.19c-4.088 3.46-6.132 9.99-6.132 19.61V1167h-12.129zm79.242 7.01h12.264v20.14h11.522v9.91H358.67v47.1c0 2.51.853 4.2 2.56 5.05.944.5 2.516.74 4.717.74h1.887c.674-.04 1.46-.11 2.358-.2v9.57c-1.392.4-2.852.7-4.38.88q-2.223.27-4.851.27-8.49 0-11.523-4.32c-2.021-2.92-3.032-6.69-3.032-11.32v-47.77h-9.77v-9.91h9.77zm735.284 35.17c5.66 0 10.06-.79 13.2-2.36 4.95-2.47 7.42-6.92 7.42-13.34 0-6.47-2.63-10.83-7.89-13.07q-4.44-1.89-13.2-1.89h-23.93v30.66zm4.51 45.68c8.22 0 14.09-2.38 17.59-7.14 2.2-3.01 3.3-6.65 3.3-10.91 0-7.19-3.21-12.09-9.63-14.69-3.42-1.4-7.93-2.09-13.55-2.09h-26.62v34.83zm-42.04-87.53h42.51c11.59 0 19.84 3.46 24.73 10.38 2.88 4.09 4.32 8.81 4.32 14.15 0 6.25-1.78 11.37-5.33 15.37q-2.76 3.165-7.95 5.79c5.08 1.93 8.87 4.11 11.39 6.54 4.45 4.31 6.67 10.26 6.67 17.85 0 6.38-2 12.15-6 17.32-5.97 7.73-15.47 11.59-28.5 11.59h-41.84zm91.1 26.82h11.52v12.47c.94-2.43 3.26-5.37 6.94-8.83 3.68-3.5 7.93-5.25 12.74-5.25q.33 0 1.14.06.81.075 2.76.27v12.81c-.72-.14-1.39-.23-2.02-.27-.58-.05-1.23-.07-1.95-.07-6.11 0-10.81 1.98-14.09 5.93-3.27 3.91-4.91 8.42-4.91 13.54V1167h-12.13zm45.62.34h12.33V1167h-12.33zm0-27.16h12.33v13.75h-12.33zm56.19 25.54c5.66 0 10.6 1.4 14.83 4.18 2.29 1.57 4.62 3.86 7 6.87v-9.09h11.19v65.63c0 9.16-1.35 16.39-4.04 21.69-5.03 9.8-14.54 14.69-28.51 14.69-7.77 0-14.3-1.75-19.6-5.25-5.31-3.46-8.27-8.9-8.9-16.31h12.33c.59 3.24 1.75 5.73 3.51 7.48 2.74 2.7 7.05 4.04 12.93 4.04 9.3 0 15.39-3.27 18.26-9.83 1.71-3.87 2.5-10.76 2.36-20.69q-3.63 5.52-8.76 8.22c-3.41 1.8-7.93 2.7-13.54 2.7-7.82 0-14.67-2.77-20.55-8.29-5.84-5.57-8.76-14.76-8.76-27.56 0-12.09 2.94-21.52 8.82-28.3 5.93-6.79 13.08-10.18 21.43-10.18m21.83 37.06c0-8.94-1.84-15.56-5.52-19.87-3.68-4.32-8.38-6.47-14.08-6.47-8.54 0-14.38 3.99-17.52 11.99-1.67 4.27-2.5 9.86-2.5 16.78q0 12.195 4.92 18.6c3.33 4.22 7.77 6.33 13.34 6.33 8.72 0 14.85-3.93 18.4-11.79 1.98-4.45 2.96-9.64 2.96-15.57m29.52-62.93h12.13v36.92c2.87-3.64 5.45-6.2 7.75-7.68 3.9-2.56 8.78-3.84 14.62-3.84 10.46 0 17.56 3.66 21.29 10.98q3.03 6 3.03 16.65V1167h-12.46v-45.48c0-5.3-.68-9.19-2.02-11.66-2.21-3.95-6.34-5.93-12.4-5.93q-7.545 0-13.68 5.19c-4.09 3.46-6.13 9.99-6.13 19.61V1167h-12.13zm79.24 7.01h12.26v20.14h11.53v9.91h-11.53v47.1c0 2.51.86 4.2 2.56 5.05.95.5 2.52.74 4.72.74h1.89c.67-.04 1.46-.11 2.36-.2v9.57c-1.4.4-2.86.7-4.38.88-1.49.18-3.1.27-4.86.27q-8.49 0-11.52-4.32c-2.02-2.92-3.03-6.69-3.03-11.32v-47.77h-9.77v-9.91h9.77z" fill="#FF8000"/><path d="M451.254 1158.85q8.49 0 14.083-7.08c3.773-4.76 5.66-11.86 5.66-21.29 0-5.75-.831-10.69-2.493-14.83-3.145-7.95-8.895-11.92-17.25-11.92q-12.6 0-17.25 12.6c-1.662 4.49-2.493 10.2-2.493 17.11q0 8.355 2.493 14.22 4.716 11.19 17.25 11.19m-31.4-63.68h11.792v9.57q3.638-4.92 7.951-7.62c4.088-2.69 8.894-4.04 14.42-4.04 8.175 0 15.116 3.15 20.821 9.43q8.558 9.375 8.558 26.82 0 23.595-12.332 33.69c-5.21 4.27-11.275 6.41-18.193 6.41-5.435 0-9.995-1.19-13.679-3.58-2.156-1.34-4.559-3.66-7.21-6.94v36.86h-12.128zm87.058 52.63q0 5.25 3.841 8.28c2.56 2.03 5.593 3.04 9.097 3.04q6.4 0 12.398-2.97c6.738-3.28 10.107-8.65 10.107-16.1v-9.77c-1.482.94-3.391 1.73-5.727 2.35a49 49 0 0 1-6.873 1.35l-7.345.95q-6.603.87-9.905 2.76-5.593 3.165-5.593 10.11m29.379-24.53q4.177-.54 5.593-3.51c.539-1.07.808-2.62.808-4.64 0-4.14-1.482-7.12-4.447-8.97-2.92-1.88-7.12-2.83-12.6-2.83-6.334 0-10.827 1.71-13.477 5.12q-2.223 2.835-2.897 8.43H497.95c.225-8.9 3.1-15.07 8.625-18.53 5.571-3.51 12.017-5.26 19.339-5.26 8.49 0 15.386 1.62 20.687 4.85 5.255 3.24 7.883 8.27 7.883 15.1v41.57q0 1.89.742 3.03c.539.77 1.639 1.15 3.301 1.15.539 0 1.146-.02 1.82-.07q1.01-.135 2.156-.33v8.96c-1.887.54-3.324.87-4.313 1.01-.988.13-2.336.2-4.043.2-4.177 0-7.209-1.48-9.096-4.45-.989-1.57-1.685-3.79-2.089-6.67-2.471 3.24-6.02 6.04-10.647 8.42-4.627 2.39-9.725 3.58-15.295 3.58-6.694 0-12.174-2.03-16.442-6.07-4.223-4.09-6.334-9.19-6.334-15.29q0-10.05 6.267-15.57 6.266-5.52 16.441-6.81zm40.564-48.58h12.264v20.14h11.523v9.91h-11.523v47.1c0 2.51.854 4.2 2.561 5.05.943.5 2.515.74 4.716.74h1.887c.674-.04 1.46-.11 2.359-.2v9.57c-1.393.4-2.853.7-4.38.88q-2.224.27-4.852.27-8.49 0-11.522-4.32c-2.022-2.92-3.033-6.69-3.033-11.32v-47.77h-9.77v-9.91h9.77zm35.983-7.01h12.129v36.92q4.312-5.46 7.749-7.68 5.862-3.84 14.622-3.84 15.7 0 21.293 10.98 3.032 6 3.032 16.65V1167h-12.466v-45.48c0-5.3-.674-9.19-2.021-11.66-2.201-3.95-6.334-5.93-12.399-5.93q-7.546 0-13.678 5.19c-4.088 3.46-6.132 9.99-6.132 19.61V1167h-12.129zm118.257 16.17c.179-5.03 1.055-8.72 2.628-11.05 2.83-4.13 8.288-6.2 16.374-6.2.763 0 1.549.02 2.358.07.809.04 1.73.11 2.763.2v11.05c-1.258-.09-2.179-.13-2.763-.13-.539-.05-1.056-.07-1.55-.07-3.683 0-5.884.96-6.603 2.9q-1.078 2.82-1.078 14.55h11.994v9.57h-12.129V1167h-11.994v-62.26h-10.04v-9.57h10.04zm64.013 75.33q12.062 0 16.509-9.09c3.01-6.11 4.515-12.9 4.515-20.35q0-10.11-3.235-16.44c-3.414-6.65-9.298-9.98-17.654-9.98q-11.118 0-16.172 8.49-5.053 8.49-5.053 20.49 0 11.52 5.053 19.2 5.054 7.68 16.037 7.68m.472-66.44q13.948 0 23.584 9.3t9.636 27.36c0 11.64-2.83 21.25-8.49 28.84s-14.443 11.39-26.347 11.39c-9.928 0-17.812-3.35-23.651-10.04q-8.76-10.11-8.76-27.09c0-12.13 3.077-21.79 9.231-28.97 6.155-7.19 14.42-10.79 24.797-10.79m48.044 2.09h11.522v12.47c.944-2.43 3.257-5.37 6.941-8.83q5.526-5.25 12.735-5.25.337 0 1.146.06.809.075 2.762.27v12.81q-1.077-.21-2.021-.27c-.584-.05-1.235-.07-1.954-.07-6.109 0-10.804 1.98-14.083 5.93-3.279 3.91-4.919 8.42-4.919 13.54V1167h-12.129zm93.325 52.97q0 5.25 3.841 8.28c2.561 2.03 5.593 3.04 9.097 3.04q6.4 0 12.398-2.97c6.738-3.28 10.108-8.65 10.108-16.1v-9.77c-1.483.94-3.392 1.73-5.728 2.35a49 49 0 0 1-6.873 1.35l-7.345.95q-6.603.87-9.905 2.76-5.593 3.165-5.593 10.11m29.379-24.53q4.178-.54 5.593-3.51c.539-1.07.808-2.62.808-4.64 0-4.14-1.482-7.12-4.447-8.97-2.92-1.88-7.12-2.83-12.6-2.83-6.334 0-10.827 1.71-13.477 5.12q-2.223 2.835-2.897 8.43h-11.321c.225-8.9 3.1-15.07 8.625-18.53 5.571-3.51 12.017-5.26 19.339-5.26 8.49 0 15.386 1.62 20.687 4.85 5.256 3.24 7.883 8.27 7.883 15.1v41.57q0 1.89.742 3.03c.539.77 1.639 1.15 3.301 1.15.54 0 1.146-.02 1.82-.07q1.01-.135 2.156-.33v8.96c-1.887.54-3.324.87-4.312 1.01-.989.13-2.336.2-4.043.2-4.178 0-7.21-1.48-9.097-4.45-.988-1.57-1.685-3.79-2.089-6.67-2.471 3.24-6.02 6.04-10.646 8.42-4.627 2.39-9.726 3.58-15.296 3.58-6.694 0-12.174-2.03-16.442-6.07-4.222-4.09-6.334-9.19-6.334-15.29q0-10.05 6.267-15.57t16.441-6.81zm519.052-57.95c12.53 0 22.26 3.3 29.17 9.9 6.92 6.61 10.76 14.11 11.53 22.51H1513c-1.48-6.38-4.44-11.43-8.89-15.16-4.4-3.73-10.6-5.59-18.6-5.59-9.75 0-17.63 3.43-23.65 10.31-5.97 6.82-8.96 17.31-8.96 31.46 0 11.59 2.69 21 8.09 28.24 5.43 7.18 13.52 10.78 24.25 10.78 9.89 0 17.41-3.8 22.58-11.39 2.74-4 4.78-9.25 6.13-15.77h13.07c-1.17 10.43-5.03 19.16-11.59 26.22-7.86 8.49-18.46 12.73-31.8 12.73q-17.25 0-28.98-10.44c-10.29-9.21-15.43-23.43-15.43-42.66 0-14.6 3.86-26.57 11.59-35.91 8.36-10.15 19.88-15.23 34.57-15.23m65.7 82.48q0 5.25 3.84 8.28c2.56 2.03 5.59 3.04 9.09 3.04 4.27 0 8.4-.99 12.4-2.97 6.74-3.28 10.11-8.65 10.11-16.1v-9.77c-1.48.94-3.39 1.73-5.73 2.35a48.4 48.4 0 0 1-6.87 1.35l-7.35.95q-6.6.87-9.9 2.76c-3.73 2.11-5.59 5.48-5.59 10.11m29.38-24.53c2.78-.36 4.64-1.53 5.59-3.51.54-1.07.81-2.62.81-4.64 0-4.14-1.49-7.12-4.45-8.97-2.92-1.88-7.12-2.83-12.6-2.83-6.34 0-10.83 1.71-13.48 5.12-1.48 1.89-2.45 4.7-2.9 8.43h-11.32c.23-8.9 3.1-15.07 8.63-18.53 5.57-3.51 12.02-5.26 19.34-5.26 8.49 0 15.38 1.62 20.68 4.85 5.26 3.24 7.89 8.27 7.89 15.1v41.57c0 1.26.25 2.27.74 3.03.54.77 1.64 1.15 3.3 1.15.54 0 1.15-.02 1.82-.07q1.005-.135 2.16-.33v8.96c-1.89.54-3.33.87-4.32 1.01-.98.13-2.33.2-4.04.2-4.18 0-7.21-1.48-9.1-4.45-.98-1.57-1.68-3.79-2.08-6.67-2.47 3.24-6.02 6.04-10.65 8.42-4.63 2.39-9.73 3.58-15.3 3.58-6.69 0-12.17-2.03-16.44-6.07-4.22-4.09-6.33-9.19-6.33-15.29 0-6.7 2.09-11.89 6.26-15.57 4.18-3.68 9.66-5.95 16.45-6.81zm38.47-28.44h11.52v12.47c.95-2.43 3.26-5.37 6.94-8.83 3.69-3.5 7.93-5.25 12.74-5.25.22 0 .61.02 1.14.06.54.05 1.46.14 2.77.27v12.81c-.72-.14-1.4-.23-2.02-.27-.59-.05-1.24-.07-1.96-.07-6.11 0-10.8 1.98-14.08 5.93-3.28 3.91-4.92 8.42-4.92 13.54V1167h-12.13zm75.67-1.61c5.12 0 10.09 1.21 14.89 3.63 4.81 2.39 8.47 5.48 10.99 9.3 2.42 3.64 4.04 7.89 4.85 12.74q1.08 4.98 1.08 15.9h-52.9c.23 7.32 1.95 13.21 5.19 17.66q4.845 6.6 15.03 6.6c6.33 0 11.38-2.09 15.16-6.27 2.15-2.42 3.68-5.23 4.58-8.42h11.93c-.32 2.65-1.37 5.61-3.17 8.89-1.75 3.24-3.73 5.89-5.93 7.96-3.68 3.59-8.24 6.01-13.68 7.27-2.92.72-6.22 1.08-9.91 1.08-8.98 0-16.59-3.26-22.84-9.77-6.24-6.56-9.36-15.72-9.36-27.49 0-11.59 3.14-21 9.43-28.24 6.29-7.23 14.51-10.84 24.66-10.84m19.34 31.94c-.49-5.26-1.64-9.46-3.44-12.61-3.32-5.84-8.87-8.76-16.64-8.76-5.57 0-10.24 2.03-14.02 6.07-3.77 4-5.77 9.1-5.99 15.3zm57.48-31.94c5.12 0 10.08 1.21 14.89 3.63 4.81 2.39 8.47 5.48 10.98 9.3 2.43 3.64 4.05 7.89 4.85 12.74q1.08 4.98 1.08 15.9h-52.89c.22 7.32 1.95 13.21 5.19 17.66 3.23 4.4 8.24 6.6 15.02 6.6 6.34 0 11.39-2.09 15.16-6.27 2.16-2.42 3.69-5.23 4.59-8.42h11.92c-.31 2.65-1.37 5.61-3.17 8.89-1.75 3.24-3.72 5.89-5.92 7.96-3.69 3.59-8.25 6.01-13.68 7.27-2.92.72-6.23 1.08-9.91 1.08-8.98 0-16.6-3.26-22.84-9.77-6.25-6.56-9.37-15.72-9.37-27.49 0-11.59 3.15-21 9.44-28.24 6.28-7.23 14.51-10.84 24.66-10.84m19.34 31.94c-.5-5.26-1.64-9.46-3.44-12.61-3.32-5.84-8.87-8.76-16.64-8.76-5.57 0-10.25 2.03-14.02 6.07q-5.655 6-6 15.3zm27.76-30.33h11.52v12.47c.94-2.43 3.26-5.37 6.94-8.83 3.69-3.5 7.93-5.25 12.74-5.25q.33 0 1.14.06.81.075 2.76.27v12.81c-.71-.14-1.39-.23-2.02-.27-.58-.05-1.23-.07-1.95-.07-6.11 0-10.8 1.98-14.08 5.93-3.28 3.91-4.92 8.42-4.92 13.54V1167h-12.13zm40.97 57.48h14.08V1167h-14.08z" fill="#000"/><circle cx="2016.26" cy="204.258" r="62.953" stroke="#000" stroke-width="8.609"/><path d="M1992.76 228h-11.69v-33.699h-10.56v-9.556h32.78v9.556h-10.53zm35.56 0-8.85-31.154h-.26c.08.808.16 1.903.23 3.284q.15 2.07.27 4.467t.12 4.616V228h-10.36v-43.255h15.57l9.02 30.71h.24l8.84-30.71h15.6V228H2048v-18.965c0-1.361.01-2.82.05-4.379q.09-2.366.18-4.437.12-2.101.21-3.314h-.27L2039.44 228z" fill="#000"/></g><defs><clipPath id="a"><path fill="#fff" d="M0 0h2084v1198H0z"/></clipPath><clipPath id="b"><path fill="#fff" d="M1915.375 189.627 1653.09 44l-97.084 174.856 262.284 145.626z"/></clipPath></defs></svg>